<svg xmlns="http://www.w3.org/2000/svg" width="275" height="136" fill="none" viewBox="0 0 395 196"><g filter="url(#a)"><path fill="url(#b)" d="M60 0h275v104l-137.5 32L60 104V0Z"/><g fill="#fff" clip-path="url(#c)"><path d="m167 48.4-28.2 15.8 8.5 5.3L166.5 59a36.1 36.1 0 0 1-71 0L115 69.3l8.3-5-28.1-16c.3-2.7.9-5.4 1.8-8l34 19.4 34.3-19.5c.9 2.7 1.5 5.4 1.7 8.2Z"/><path d="m131 15.8-31 17.5h20.1v11.5l10.7 6 11-6.2V33.3h19.8l.3-.1L131 15.8ZM192.5 61.4c1 .3 2 1 2.7 1.8.7 1 1 2.1 1 3.3a5.5 5.5 0 0 1-1.8 4.1 6.5 6.5 0 0 1-4.6 1.7h-9.7V52.5h9.3c1.8 0 3.2.5 4.3 1.5a4.6 4.6 0 0 1 .7 5.9c-.4.7-1.1 1.3-2 1.5Zm-4-4.7H185v3.4h3.2c.6 0 1.1-.1 1.5-.5a1.6 1.6 0 0 0 .6-1.2 1.6 1.6 0 0 0-.5-1.2 1.8 1.8 0 0 0-1.4-.5ZM185 68h3.8c.6 0 1.2-.1 1.7-.6a1.8 1.8 0 0 0 .6-1.3 1.9 1.9 0 0 0-.6-1.5c-.5-.4-1-.6-1.6-.5H185v4ZM208.4 72.6A10.2 10.2 0 0 1 198 62.4c0-2.7 1-5.3 3-7.3a10.6 10.6 0 0 1 14.7 0 10.2 10.2 0 0 1-7.3 17.5Zm0-5a5 5 0 0 0 3.6-1.4 5.1 5.1 0 0 0 1.5-3.8 5.2 5.2 0 0 0-8.8-3.8 5.5 5.5 0 0 0 0 7.5 5 5 0 0 0 3.7 1.6ZM230.8 72.6a10 10 0 0 1-7.3-2.8 9.8 9.8 0 0 1-2.9-7.4 10 10 0 0 1 10.2-10.3c1.7 0 3.4.4 4.9 1 1.4.7 2.6 1.7 3.6 3l-3.2 3.3a6.8 6.8 0 0 0-5-2.4 5.2 5.2 0 0 0-5 3.3c-.2.7-.3 1.4-.3 2.2a5.3 5.3 0 0 0 3.2 5c.7.2 1.4.4 2.1.3a6.5 6.5 0 0 0 5-2.5l3.4 3.2a10.6 10.6 0 0 1-8.7 4ZM245.5 72.3h-5.8l6.1-10-5.6-9.8h5.7l3.2 6.1 3.4-6h5.8l-6 9.7 5.9 10h-5.8l-3.4-6.2-3.5 6.2Z"/><path d="M268.5 72.6a10.2 10.2 0 0 1-10.4-10.2c0-2.7 1.1-5.3 3-7.3a10.6 10.6 0 0 1 14.8 0 10.2 10.2 0 0 1-7.4 17.5Zm0-5a5 5 0 0 0 3.7-1.4 5.1 5.1 0 0 0 1.5-3.8 5.2 5.2 0 0 0-8.9-3.8 5.5 5.5 0 0 0 0 7.5 5 5 0 0 0 3.7 1.6ZM297.4 52.5v15.2h2.2v8.6h-5v-4h-9.9v4h-5v-8.6h1.8c1.4-2.7 2.4-6.8 3-12.4l.3-2.8h12.6Zm-10.7 15.2h5.7V57.2h-3.2l-.2 1.3c-.5 3.1-1.2 6.2-2.3 9.2ZM180.9 48.3c-.3 0-.6 0-1-.2l.2-1.1h.5a1 1 0 0 0 1-.7l-1.9-3.8h1.8l.8 2.2.8-2.2h1.7l-.6 1.3a59 59 0 0 1-1 2.5l-.3.4-.2.4a2.9 2.9 0 0 1-1 1 2 2 0 0 1-.8.2ZM186.8 48.3h-1.5v-5.8h5v5.8h-1.5v-4.4h-2v4.4ZM191.4 42.5h2.3a2.1 2.1 0 0 1 1.7.6c.3.4.5.9.5 1.4a2 2 0 0 1-.5 1.4 2.4 2.4 0 0 1-1.8.6h-.7v1.8h-1.5v-5.8ZM193 45h.8a.7.7 0 0 0 .5-.2.7.7 0 0 0 0-1 .7.7 0 0 0-.5-.1h-.8V45ZM201.3 48.3h-1.6l-.3-1h-1.8l-.4 1h-1.5l2.1-5.8h1.4l2 5.8Zm-3.4-2.4h1.2l-.6-1.7-.6 1.7ZM205.5 45c.3.1.6.3.8.6.2.3.3.6.3 1a1.6 1.6 0 0 1-.6 1.2 2 2 0 0 1-1.3.4h-2.8v-5.7h2.7c.4 0 .9 0 1.2.4a1.3 1.3 0 0 1 .4 1c0 .2 0 .5-.2.7a1 1 0 0 1-.5.5Zm-1.2-1.3h-1v1h1l.4-.2a.4.4 0 0 0 .1-.3.4.4 0 0 0-.1-.4.5.5 0 0 0-.4-.1Zm-1 3.3h1c.3 0 .4 0 .6-.2a.5.5 0 0 0 .2-.4v-.2l-.2-.2a.6.6 0 0 0-.5-.1h-1.1v1ZM207.5 48.3h-.4l-.3-1.2h.2a1 1 0 0 0 .8-.5l.3-1.2.1-.8.2-1v-1.2h3.9v5.9h-1.5v-4.4h-1v.4l-.1.6v.4l-.2.5v.4l-.2.5c0 .3-.1.5-.3.7a1.7 1.7 0 0 1-1.5 1ZM215.6 42.5h2.2v5.8h-1.5v-1.9l-.7.1-1 1.8H213l1.2-2a1.8 1.8 0 0 1-1-1.8 1.9 1.9 0 0 1 .7-1.5c.4-.4 1-.6 1.7-.5Zm0 2.7h.7v-1.4h-.6c-.7 0-1 .2-1 .7 0 .5.4.7 1 .7ZM224 42.3a3 3 0 0 1 2.2 1 3 3 0 0 1-2.2 5 3 3 0 0 1-1.9-.6c-.5-.4-.9-1-1-1.6h-.8v2.2H219v-5.8h1.4v2.2h.7c.2-.7.5-1.3 1-1.7a3 3 0 0 1 2-.7Zm0 4.6a1.5 1.5 0 0 0 1.4-1l.1-.6a1.5 1.5 0 0 0-.4-1 1.5 1.5 0 0 0-1-.5 1.5 1.5 0 0 0-1.2.4 1.6 1.6 0 0 0 0 2.2 1.5 1.5 0 0 0 1.1.5ZM236 49.4h-1.4v-1.1h-6.7v-5.8h1.4v4.3h1.6v-4.3h1.5v4.3h1.5v-4.3h1.5v4.3h.6v2.6ZM241.9 48.3h-1.5l-.3-1h-1.9l-.3 1h-1.5l2-5.8h1.4l2.1 5.8Zm-3.3-2.4h1.1l-.5-1.7-.6 1.7ZM244.7 42.5h2.2v5.8h-1.5v-1.9l-.7.1-1 1.8h-1.6l1.3-2a1.8 1.8 0 0 1-1-1.8 1.9 1.9 0 0 1 .6-1.5c.4-.4 1-.6 1.7-.5Zm0 2.7h.8v-1.4h-.7c-.6 0-1 .2-1 .7 0 .5.4.7 1 .7ZM255.1 48.3h-1.8l-1.2-2.1-.6.7v1.4H250v-5.8h1.5v2.3l1.8-2.3h1.8l-2 2.5 2 3.3Z"/><path d="M258 48.3a3 3 0 0 1-3-3c0-.8.2-1.5.8-2.1a3.1 3.1 0 0 1 4.3 0 3 3 0 0 1-1 5 3 3 0 0 1-1.2.1Zm0-1.4a1.5 1.5 0 0 0 1-.5 1.5 1.5 0 0 0 .5-1c0-.5-.2-.9-.5-1.2a1.5 1.5 0 0 0-2.1 0 1.6 1.6 0 0 0 0 2.2 1.5 1.5 0 0 0 1 .5ZM263.3 48.3h-1.5v-5.8h1.1l2 3 2.2-3h1v5.8h-1.4v-2.8l-1.4 2h-.6l-1.4-2v2.8ZM270.8 48.3h-1.5v-5.8h5v5.8h-1.5v-4.4h-2v4.4ZM280.4 48.3h-1.5l-.3-1h-1.9l-.3 1h-1.5l2-5.8h1.4l2.1 5.8Zm-3.3-2.4h1.1l-.5-1.7-.6 1.7ZM282.5 48.3H281v-5.8h1.5v2.2h2v-2.2h1.5v5.8h-1.5V46h-2v2.2ZM288 48.3h-.9v-5.8h1.4v3.3l2.7-3.3h1v5.8h-1.5v-3.4l-2.7 3.4ZM295.5 42.5h2.2v5.8h-1.5v-1.9l-.6.1-1 1.8h-1.7l1.2-2a1.8 1.8 0 0 1-1-1.8 1.9 1.9 0 0 1 .7-1.5c.4-.4 1-.6 1.7-.5Zm0 2.7h.7v-1.4h-.6c-.6 0-1 .2-1 .7 0 .5.3.7 1 .7Z"/><path d="M233.8 26h.9l2.3 6h-1l-.6-1.6H233l-.6 1.6h-1l2.3-6Zm1.4 3.7-1-2.6-1 2.6h2Zm2.9 2.3v-4.4h2.3l.7.2a1 1 0 0 1 .5 1c0 .2 0 .4-.2.5a1 1 0 0 1-.4.5l.6.3.2.7c0 .3 0 .5-.2.7l-.5.4-.8.1h-2.2Zm.8-.6h1.4l.3-.1.2-.2.1-.4v-.3l-.3-.2-.3-.1H239v1.3Zm0-1.9h1.6l.2-.3v-.3l-.1-.4a.5.5 0 0 0-.4-.2h-1.3v1.2Zm5.3 2.5v-3.5h-1.5v-.9h3.8v.9h-1.4V32h-1Zm5.4 0h-.9a2.2 2.2 0 0 1-1.3-2.2l.1-.8a2.2 2.2 0 0 1 2.1-1.4 2.2 2.2 0 0 1 2.3 2.2c0 .3 0 .6-.2.9a2.2 2.2 0 0 1-1.2 1.2l-.9.2Zm-1.3-2.2c0 .3 0 .6.2.8l.5.5.6.2c.3 0 .5 0 .7-.2l.4-.5c.2-.3.2-.5.2-.8 0-.2 0-.5-.2-.7 0-.2-.2-.4-.4-.5-.2-.2-.4-.2-.7-.2-.2 0-.4 0-.6.2-.2 0-.4.3-.5.5l-.2.7Zm4.8 2.2v-4.4h1l1.5 2.7 1.5-2.7h1V32h-1v-3l-1.2 2.2h-.6L254 29V32h-.9Zm6.2-1.3c0-.3 0-.5.2-.7l.6-.5 1-.2a4.3 4.3 0 0 1 1.1.2v-.3c0-.3 0-.5-.2-.7l-.8-.2-.7.1a4 4 0 0 0-.7.4l-.3-.7.9-.4a3 3 0 0 1 .9-.1c.6 0 1 .1 1.3.4.4.3.6.8.6 1.3v1.9h.2v.8a2 2 0 0 1-.4 0l-.4-.1a.5.5 0 0 1-.2-.3v-.3c-.2.3-.5.5-.8.6l-.8.2c-.3 0-.6 0-.8-.2-.3-.1-.4-.3-.6-.5l-.1-.7Zm2.7.3.2-.2V30l-.5-.1-.5-.1c-.3 0-.6 0-.8.2-.2.1-.3.3-.3.6a.7.7 0 0 0 .4.6l.5.1a1.5 1.5 0 0 0 1-.4Zm3.7 1v-3.5h-1.4v-.9h3.8v.9h-1.5V32h-.9Zm3.5 0v-4.3h1v3l2.1-3h.9V32h-1v-3l-2.1 3h-.9Zm7 0c-.5 0-.8 0-1.2-.2-.3-.1-.5-.4-.6-.7l.7-.3c0 .2.2.3.4.4l.6.1c.3 0 .5 0 .7-.2.2 0 .2-.2.2-.4s0-.4-.2-.5a.9.9 0 0 0-.5-.2h-.5v-.5h.5l.3-.1.2-.2v-.3l-.1-.4-.6-.2a1 1 0 0 0-.5.1 1 1 0 0 0-.4.4l-.7-.4.7-.6a2 2 0 0 1 1-.2l.7.1.6.4.2.7c0 .2 0 .4-.2.5 0 .2-.2.3-.4.4.3 0 .5.2.6.4l.2.7c0 .3 0 .5-.2.7l-.6.4-1 .2Zm2.7-1.3c0-.3 0-.5.2-.7l.7-.5 1-.2a4.3 4.3 0 0 1 1 .2v-.3c0-.3 0-.5-.2-.7l-.8-.2-.7.1a4 4 0 0 0-.7.4l-.3-.7.9-.4a3 3 0 0 1 .9-.1c.6 0 1 .1 1.4.4.3.3.5.8.5 1.3v1.9h.2v.8a2 2 0 0 1-.4 0l-.4-.1a.5.5 0 0 1-.2-.3v-.3c-.2.3-.4.5-.7.6l-1 .2c-.2 0-.5 0-.7-.2l-.5-.5c-.2-.2-.2-.4-.2-.7Zm2.7.3.2-.2V30l-.4-.1-.5-.1c-.4 0-.6 0-.8.2-.3.1-.4.3-.4.6a.7.7 0 0 0 .4.6l.5.1a1.5 1.5 0 0 0 1-.4Zm6.2 2v-1h-3.5v-4.4h1v3.6h1.7v-3.6h1v3.6h.6V33h-.8Zm2-1v-4.3h1v3l2.1-3h.8V32h-.9v-3l-2.2 3h-.8Zm5.2 0 1.2-1.7c-.3 0-.5-.2-.7-.4l-.2-.9c0-.3 0-.5.2-.7l.5-.5.8-.2h2V32h-1v-1.6h-.7l-1 1.6h-1Zm1.9-2.2h.9v-1.5h-.8l-.6.2-.2.5c0 .2 0 .4.2.6l.5.2ZM217.5 90V89h.7l.3-.4.1-.3-2.4-4.4h1l1.9 3.4 1.5-3.4h1l-2.4 5.2-.5.6a1 1 0 0 1-.6.1h-.6Zm5-.1v-4.4h1l1.4 2.7 1.5-2.7h1V90h-.9v-3l-1.3 2.2h-.6l-1.2-2.3v3h-1Zm6.4 0v-4.4h1v1.8h2v-1.8h.9V90h-1V88h-2v1.8h-.9Zm5.4 0v-4.4h1V87h.8c.5 0 .9.1 1.2.4.2.2.4.6.4 1 0 .3 0 .5-.2.8l-.5.5-.9.2h-1.8Zm1-.7h.7l.4-.1c.2 0 .2-.2.3-.3V88s-.1-.2-.3-.2a.8.8 0 0 0-.4-.2h-.7v1.6Zm3 .7v-4.4h1V90h-1Zm4.5 0-.9-.1a2.3 2.3 0 0 1-1.2-1.2 2.4 2.4 0 0 1 .2-2 2.2 2.2 0 0 1 2-1.1c.4 0 .8 0 1.1.3l.8.8a2.3 2.3 0 0 1 .3 1.3v.1h-3.5c0 .3 0 .5.2.7 0 .2.2.3.4.4l.7.2c.2 0 .4 0 .7-.2l.4-.5.8.3-.4.5a2.2 2.2 0 0 1-1.6.6Zm-1.3-2.5h2.7c0-.2-.1-.5-.3-.6 0-.2-.2-.4-.4-.5l-.7-.2c-.2 0-.4 0-.6.2l-.5.5-.2.6Zm9.8 2.6c-.4 0-.7-.1-1-.3l-.6-.6v2.6h-1v-6.2h.9v.8l.6-.6c.3-.2.6-.2 1-.2l.7.1.7.5.4.8.2.8c0 .4-.1.8-.3 1.1a2 2 0 0 1-.7.9c-.2.2-.6.3-1 .3Zm-.4-.8.6-.1.4-.4.2-.4a1.7 1.7 0 0 0 0-1.2l-.3-.4c0-.2-.2-.3-.4-.3a1.2 1.2 0 0 0-1.2 0l-.3.4-.2.3v1.1c0 .2.2.4.3.5l.4.4h.5Zm3.2-.6c0-.3.1-.5.3-.7l.6-.5 1-.2a4.3 4.3 0 0 1 1.1.2v-.3c0-.3 0-.5-.2-.7-.2-.2-.5-.2-.8-.2h-.7a4 4 0 0 0-.7.5l-.3-.7.8-.4a3 3 0 0 1 1-.1c.5 0 1 .1 1.3.4.4.3.5.8.5 1.3V89l.1.2h.2v.8a2 2 0 0 1-.4 0l-.4-.1a.5.5 0 0 1-.2-.3v-.3l-.8.6-.9.2c-.2 0-.5 0-.7-.2-.3-.1-.4-.3-.6-.5l-.2-.7Zm2.8.3.2-.2V88l-.5-.2h-.5c-.3 0-.6 0-.8.2-.2.1-.3.3-.3.5a.7.7 0 0 0 .4.7l.5.1a1.5 1.5 0 0 0 1-.4Zm4.2 1c-.5 0-.8 0-1.2-.2-.3-.2-.5-.4-.6-.7l.7-.3c0 .2.2.3.4.4l.6.1c.3 0 .5 0 .7-.2.2 0 .2-.3.2-.5 0-.1 0-.3-.2-.4a.9.9 0 0 0-.5-.2h-.5v-.6h.8l.2-.2v-.3l-.1-.4-.6-.2a1 1 0 0 0-.5.1l-.4.4-.7-.4c.2-.2.4-.5.7-.6a2 2 0 0 1 1-.2l.7.1.6.4.2.7c0 .2 0 .3-.2.5 0 .2-.2.3-.4.4.3 0 .5.2.6.4l.2.7c0 .2 0 .5-.2.7l-.6.4-1 .2Zm5.5 0c-.4 0-.7 0-1-.2l-.6-.6v2.6h-1v-6.2h.9v.8c.2-.2.4-.5.7-.6.2-.2.5-.2.8-.2l.9.1.6.5.4.8.2.8c0 .4 0 .8-.3 1.1a2 2 0 0 1-.6.9c-.3.2-.7.3-1 .3Zm-.3-.7.5-.1.4-.4.3-.4a1.7 1.7 0 0 0 0-1.2l-.3-.4c-.2-.2-.3-.3-.5-.3a1.2 1.2 0 0 0-1.2 0l-.3.4-.2.3v1.1c0 .2.2.4.3.5l.5.4h.5Zm3.2-.6c0-.3 0-.5.2-.7l.6-.5 1-.2a4.3 4.3 0 0 1 1.1.2v-.3c0-.3 0-.5-.2-.7-.2-.2-.5-.2-.8-.2h-.7a4 4 0 0 0-.7.5l-.3-.7.9-.4a3 3 0 0 1 .9-.1c.6 0 1 .1 1.4.4.3.3.5.8.5 1.3v1.9h.2v.8a2 2 0 0 1-.4 0l-.4-.1a.5.5 0 0 1-.2-.3v-.3l-.8.6-.8.2c-.3 0-.6 0-.8-.2l-.5-.5c-.2-.2-.2-.4-.2-.7Zm2.7.3.2-.2V88l-.4-.2h-.6c-.3 0-.6 0-.8.2-.2.1-.3.3-.3.5l.1.4.3.3.5.1a1.5 1.5 0 0 0 1-.4Zm4.8 1c-.7 0-1.2-.1-1.6-.6-.4-.4-.6-1-.6-1.9l.1-1.3.5-1 .6-.5a4 4 0 0 1 1-.4l1.8-.5v.8l-1.8.5c-.3 0-.5.2-.7.3l-.5.6-.2.9c.1-.3.4-.5.7-.7a2 2 0 0 1 1-.2c.4 0 .7 0 1 .2l.7.7c.2.3.2.7.2 1 0 .5 0 .8-.2 1.2-.2.3-.4.5-.8.7-.3.2-.7.3-1.2.3Zm0-.7c.4 0 .8-.1 1-.4.2-.2.3-.5.3-1 0-.3-.1-.6-.3-.8-.2-.3-.6-.4-1-.4-.2 0-.4 0-.6.2a1 1 0 0 0-.5.4l-.1.7.1.7.4.4.7.2Zm5.5.8c-.4 0-.7 0-1-.2a2.2 2.2 0 0 1-1.3-2l.2-1a2.2 2.2 0 0 1 2-1.3 2.2 2.2 0 0 1 2.3 2.2l-.1.9a2.2 2.2 0 0 1-2.1 1.4Zm-1.3-2.3c0 .3 0 .6.2.8 0 .2.2.4.4.5l.7.2c.2 0 .4 0 .6-.2l.5-.5.2-.8c0-.3 0-.5-.2-.7-.1-.3-.3-.4-.5-.6l-.6-.2-.7.2-.4.6c-.2.2-.2.4-.2.7ZM287 90v-3.6h-1.4v-.8h3.8v.8h-1.5V90h-.9Zm3.5 0v-4.4h1v1.8h.4l1.2-1.8h1l-1.5 2.1 1.7 2.3h-1l-1.4-1.8h-.5v1.8h-.9Zm5 0v-4.4h1v3.2l2.1-3.2h.9V90h-1v-3l-2.1 3h-.9Z" opacity=".5"/></g></g><defs><linearGradient id="b" x1="60" x2="335" y1="54" y2="47.5" gradientUnits="userSpaceOnUse"><stop stop-color="#282C30"/><stop offset="1" stop-color="#2B3034"/></linearGradient><clipPath id="c"><path fill="#fff" d="M80.4 0h233.8v103.9H80.4z"/></clipPath><filter id="a" width="395" height="256" x="0" y="-60" color-interpolation-filters="sRGB" filterUnits="userSpaceOnUse"><feFlood flood-opacity="0" result="BackgroundImageFix"/><feColorMatrix in="SourceAlpha" result="hardAlpha" values="0 0 0 0 0 0 0 0 0 0 0 0 0 0 0 0 0 0 127 0"/><feOffset/><feGaussianBlur stdDeviation="30"/><feComposite in2="hardAlpha" operator="out"/><feColorMatrix values="0 0 0 0 0 0 0 0 0 0 0 0 0 0 0 0 0 0 0.25 0"/><feBlend in2="BackgroundImageFix" result="effect1_dropShadow_1808_544571"/><feBlend in="SourceGraphic" in2="effect1_dropShadow_1808_544571" result="shape"/></filter></defs></svg>