<svg width="395" height="196" viewBox="0 0 395 196" fill="none" xmlns="http://www.w3.org/2000/svg">
<g filter="url(#filter0_d_1808_544571)">
<path d="M60 0H335V104L197.5 136L60 104V0Z" fill="url(#paint0_linear_1808_544571)"/>
<g clip-path="url(#clip0_1808_544571)">
<path d="M166.93 48.361L138.823 64.2166L147.286 69.4713L166.453 59.0292C164.814 67.221 160.387 74.5918 153.926 79.8879C147.465 85.184 139.369 88.0782 131.015 88.0782C122.661 88.0782 114.564 85.184 108.103 79.8879C101.642 74.5918 97.2158 67.221 95.5764 59.0292L114.896 69.343L123.2 64.2166L95.0938 48.361C95.3622 45.5924 95.9549 42.865 96.8596 40.2346L130.984 59.7135L165.164 40.2285C166.069 42.8589 166.661 45.5863 166.93 48.3549V48.361Z" fill="white"/>
<path d="M131.027 15.825L100.067 33.3303H120.102V44.7561L130.844 50.8784L141.86 44.5972V33.3303H161.632L161.901 33.1775L131.027 15.825Z" fill="white"/>
<path d="M192.458 61.4304C193.567 61.678 194.55 62.3181 195.225 63.2329C195.89 64.1751 196.233 65.3065 196.203 66.459C196.222 67.2401 196.074 68.0163 195.77 68.7359C195.465 69.4555 195.011 70.1019 194.437 70.6322C193.177 71.7661 191.524 72.3625 189.83 72.2941H180.115V52.5464H189.378C191.215 52.5464 192.641 53.0372 193.655 54.0189C194.138 54.4494 194.524 54.9776 194.787 55.5685C195.051 56.1595 195.186 56.7997 195.183 57.4467C195.183 58.3183 194.921 59.1698 194.431 59.8907C193.965 60.6114 193.27 61.1539 192.458 61.4304ZM188.443 56.744H185.016V60.0923H188.229C188.774 60.1291 189.312 59.9613 189.739 59.6218C189.911 59.4693 190.047 59.2807 190.138 59.0695C190.229 58.8583 190.272 58.6296 190.264 58.3998C190.267 58.1793 190.223 57.9607 190.137 57.7577C190.051 57.5547 189.924 57.3718 189.763 57.2206C189.585 57.0584 189.377 56.9328 189.151 56.851C188.924 56.7692 188.684 56.7329 188.443 56.744ZM185.016 68.011H188.761C189.385 68.0562 190.002 67.8543 190.478 67.4488C190.674 67.2739 190.829 67.059 190.935 66.8187C191.04 66.5783 191.093 66.3181 191.089 66.0557C191.093 65.7897 191.04 65.526 190.935 65.2817C190.83 65.0374 190.674 64.8181 190.478 64.6382C190.037 64.2474 189.46 64.0456 188.871 64.0761H185.016V68.011Z" fill="white"/>
<path d="M208.381 72.6181C207.009 72.6497 205.646 72.4034 204.372 71.8941C203.098 71.3849 201.941 70.6231 200.969 69.6547C199.068 67.7133 198.003 65.1042 198.003 62.3868C198.003 59.6694 199.068 57.0602 200.969 55.1189C202.951 53.2142 205.592 52.1504 208.341 52.1504C211.089 52.1504 213.731 53.2142 215.713 55.1189C217.163 56.5518 218.151 58.3857 218.55 60.3848C218.949 62.3838 218.741 64.4565 217.952 66.3363C217.164 68.2161 215.831 69.817 214.125 70.9332C212.42 72.0494 210.419 72.6298 208.381 72.5998V72.6181ZM208.381 67.6628C209.061 67.6755 209.738 67.5493 210.368 67.2919C210.998 67.0345 211.569 66.6514 212.047 66.1659C212.541 65.6723 212.929 65.0825 213.187 64.4331C213.444 63.7836 213.566 63.0882 213.544 62.3898C213.551 61.6895 213.418 60.9947 213.151 60.3471C212.884 59.6994 212.49 59.112 211.992 58.6199C211.512 58.1359 210.941 57.7517 210.311 57.4896C209.682 57.2274 209.007 57.0924 208.326 57.0924C207.644 57.0924 206.969 57.2274 206.34 57.4896C205.711 57.7517 205.14 58.1359 204.66 58.6199C203.704 59.6391 203.173 60.9837 203.173 62.3807C203.173 63.7776 203.704 65.1222 204.66 66.1414C205.137 66.6356 205.711 67.0258 206.346 67.2876C206.981 67.5494 207.663 67.6771 208.35 67.6628H208.381Z" fill="white"/>
<path d="M230.78 72.5875C229.445 72.6254 228.116 72.3963 226.871 71.9137C225.625 71.431 224.489 70.7046 223.528 69.7769C222.559 68.8243 221.8 67.6803 221.298 66.4179C220.796 65.1555 220.563 63.8024 220.613 62.4448C220.574 61.0907 220.81 59.7427 221.307 58.4825C221.804 57.2222 222.551 56.0759 223.504 55.1129C224.457 54.1498 225.595 53.3901 226.85 52.8797C228.105 52.3692 229.45 52.1187 230.805 52.1432C232.492 52.1236 234.161 52.4806 235.693 53.1881C237.11 53.8442 238.345 54.8362 239.292 56.0781L236.108 59.4203C234.577 57.791 232.917 56.9763 231.129 56.9763C230.419 56.9602 229.713 57.0896 229.056 57.3565C228.398 57.6234 227.802 58.0222 227.304 58.5283C226.799 59.049 226.404 59.6655 226.142 60.3413C225.88 61.017 225.755 61.7385 225.776 62.4631C225.757 63.1757 225.882 63.8847 226.145 64.5473C226.408 65.21 226.802 65.8126 227.304 66.3186C227.801 66.8164 228.395 67.2083 229.048 67.4708C229.701 67.7333 230.4 67.861 231.104 67.8461C232.09 67.8375 233.06 67.6034 233.941 67.1617C234.823 66.7201 235.591 66.0827 236.188 65.2982L239.505 68.4877C238.521 69.7396 237.268 70.7544 235.839 71.4571C234.266 72.2285 232.532 72.6159 230.78 72.5875Z" fill="white"/>
<path d="M245.476 72.2941H239.665L245.824 62.3225L240.178 52.5464H245.928L249.062 58.5953L252.49 52.5464H258.295L252.246 62.3225L258.16 72.3063H252.435L249.007 66.0679L245.476 72.2941Z" fill="white"/>
<path d="M268.516 72.6179C267.145 72.6492 265.782 72.4027 264.508 71.8935C263.234 71.3842 262.077 70.6226 261.105 69.6545C259.204 67.7132 258.139 65.104 258.139 62.3866C258.139 59.6693 259.204 57.0601 261.105 55.1187C263.087 53.2136 265.73 52.1497 268.48 52.1497C271.229 52.1497 273.872 53.2136 275.855 55.1187C277.306 56.5535 278.295 58.3902 278.693 60.3922C279.092 62.3941 278.881 64.4695 278.089 66.3506C277.296 68.2318 275.959 69.8324 274.248 70.9462C272.538 72.06 270.533 72.6359 268.492 72.5996L268.516 72.6179ZM268.516 67.6627C269.197 67.676 269.874 67.5502 270.504 67.2927C271.134 67.0353 271.706 66.6518 272.182 66.1657C272.678 65.6724 273.067 65.0829 273.325 64.4334C273.584 63.784 273.706 63.0884 273.686 62.3897C273.692 61.6895 273.558 60.9952 273.291 60.3477C273.024 59.7002 272.631 59.1127 272.134 58.6198C271.654 58.1358 271.083 57.7516 270.453 57.4894C269.824 57.2272 269.149 57.0923 268.468 57.0923C267.786 57.0923 267.111 57.2272 266.482 57.4894C265.853 57.7516 265.281 58.1358 264.801 58.6198C263.846 59.639 263.314 60.9836 263.314 62.3805C263.314 63.7775 263.846 65.1221 264.801 66.1413C265.278 66.6366 265.852 67.0276 266.487 67.2895C267.122 67.5514 267.805 67.6785 268.492 67.6627H268.516Z" fill="white"/>
<path d="M297.422 52.5464V67.6933H299.591V76.339H294.612V72.3247H284.707V76.339H279.703V67.6627H281.536C282.913 65.0435 283.903 60.9233 284.506 55.3021L284.829 52.5159L297.422 52.5464ZM286.693 67.6933H292.449V57.2023H289.155L288.966 58.4854C288.544 61.618 287.782 64.6953 286.693 67.6627V67.6933Z" fill="white"/>
<path d="M180.855 48.3305C180.554 48.3376 180.256 48.2704 179.987 48.135L180.091 46.968C180.249 47.0367 180.42 47.0741 180.592 47.078C180.815 47.0723 181.031 46.9968 181.208 46.8619C181.386 46.727 181.517 46.5397 181.582 46.3264L179.749 42.4526H181.472L182.334 44.7195L183.097 42.4526H184.802L184.191 43.8457C183.684 45.0372 183.33 45.8437 183.128 46.2531C183.012 46.4975 182.938 46.638 182.914 46.6869C182.89 46.7358 182.792 46.9374 182.706 47.0963C182.63 47.2355 182.542 47.3683 182.444 47.4934C182.261 47.7367 182.036 47.944 181.778 48.1044C181.491 48.2496 181.176 48.327 180.855 48.3305Z" fill="white"/>
<path d="M186.776 48.2694H185.315V42.4526H190.283V48.2694H188.81V43.8579H186.776V48.2694Z" fill="white"/>
<path d="M191.426 42.4526H193.735C194.036 42.4334 194.337 42.4779 194.619 42.5832C194.902 42.6885 195.158 42.8522 195.373 43.0636C195.735 43.452 195.929 43.9685 195.911 44.4995C195.919 44.7602 195.874 45.0199 195.778 45.2627C195.683 45.5054 195.539 45.726 195.355 45.9109C195.117 46.1106 194.843 46.2615 194.547 46.3548C194.252 46.4481 193.94 46.4821 193.632 46.4547H192.892V48.2877H191.426V42.4526ZM192.892 45.1105H193.699C193.794 45.1166 193.89 45.1035 193.98 45.0721C194.07 45.0406 194.153 44.9913 194.224 44.9272C194.342 44.7977 194.408 44.6288 194.408 44.4536C194.408 44.2784 194.342 44.1096 194.224 43.9801C194.16 43.9171 194.083 43.8678 193.999 43.8353C193.915 43.8027 193.825 43.7876 193.735 43.7907H192.892V45.1105Z" fill="white"/>
<path d="M201.251 48.2694H199.748L199.406 47.2123H197.573L197.218 48.2694H195.709L197.823 42.4771H199.186L201.251 48.2694ZM197.933 45.9415H199.057L198.507 44.2245L197.933 45.9415Z" fill="white"/>
<path d="M205.467 45.0616C205.792 45.1366 206.08 45.3251 206.279 45.5932C206.473 45.8682 206.573 46.1979 206.566 46.5341C206.571 46.7629 206.527 46.99 206.437 47.2006C206.348 47.4112 206.215 47.6005 206.047 47.7562C205.677 48.0867 205.192 48.2598 204.697 48.2388H201.855V42.4526H204.568C205.017 42.4313 205.456 42.5871 205.79 42.8864C205.931 43.0125 206.044 43.1669 206.121 43.3397C206.198 43.5124 206.237 43.6994 206.236 43.8885C206.237 44.1435 206.16 44.3927 206.016 44.6034C205.89 44.8141 205.697 44.9757 205.467 45.0616ZM204.293 43.693H203.285V44.6706H204.226C204.386 44.6826 204.545 44.6347 204.672 44.5361C204.723 44.4911 204.763 44.4354 204.789 44.373C204.815 44.3107 204.828 44.2433 204.825 44.1757C204.826 44.1115 204.814 44.0478 204.788 43.9888C204.763 43.9298 204.726 43.8768 204.678 43.8335C204.627 43.7852 204.566 43.7478 204.5 43.7237C204.434 43.6995 204.364 43.6891 204.293 43.693ZM203.285 46.9924H204.385C204.567 47.0052 204.747 46.946 204.886 46.8274C204.943 46.779 204.989 46.7192 205.022 46.6519C205.055 46.5845 205.073 46.5112 205.075 46.4364C205.078 46.359 205.064 46.282 205.034 46.2104C205.005 46.1388 204.961 46.0742 204.904 46.0209C204.841 45.9637 204.766 45.9196 204.686 45.8913C204.605 45.863 204.519 45.851 204.434 45.8559H203.304L203.285 46.9924Z" fill="white"/>
<path d="M207.458 48.3366H207.134L206.822 47.1146H206.951C207.12 47.1173 207.286 47.073 207.432 46.9867C207.578 46.9004 207.696 46.7755 207.775 46.6258C207.969 46.2435 208.093 45.8297 208.142 45.4038C208.191 45.0494 208.228 44.7928 208.246 44.6217L208.356 43.5708L208.466 42.4404H212.26V48.2694H210.782V43.8641H209.786L209.731 44.3345C209.731 44.4018 209.731 44.5728 209.676 44.8539L209.621 45.3122C209.584 45.5688 209.56 45.7399 209.541 45.8132L209.45 46.247C209.401 46.4731 209.364 46.6258 209.34 46.6991C209.257 46.955 209.151 47.2026 209.022 47.4385C208.874 47.7214 208.648 47.9561 208.371 48.1152C208.093 48.2743 207.777 48.3511 207.458 48.3366Z" fill="white"/>
<path d="M215.597 42.4528H217.766V48.2696H216.324V46.4365C216.098 46.4734 215.869 46.4938 215.64 46.4976L214.626 48.2696H213.019L214.241 46.2227C213.914 46.0649 213.644 45.8112 213.466 45.4956C213.288 45.18 213.211 44.8176 213.245 44.4569C213.236 44.1857 213.286 43.9158 213.391 43.6658C213.497 43.4157 213.655 43.1916 213.856 43.0088C214.342 42.6052 214.966 42.4059 215.597 42.4528ZM215.664 45.2267C215.885 45.2249 216.106 45.2045 216.324 45.1656V43.7725H215.658C215.047 43.7725 214.754 44.0108 214.754 44.4935C214.754 44.9762 215.059 45.2145 215.664 45.2145V45.2267Z" fill="white"/>
<path d="M224.016 42.3487C224.418 42.339 224.816 42.4115 225.188 42.5617C225.56 42.712 225.898 42.9369 226.179 43.2224C226.605 43.6425 226.895 44.1807 227.012 44.7674C227.128 45.3542 227.066 45.9623 226.833 46.5133C226.6 47.0642 226.207 47.5325 225.705 47.8576C225.203 48.1826 224.615 48.3495 224.016 48.3365C223.333 48.3514 222.663 48.1362 222.116 47.7255C221.589 47.3199 221.219 46.7429 221.071 46.0941H220.35V48.2693H218.878V42.4525H220.35V44.6705H221.029C221.168 44.0096 221.536 43.419 222.067 43.0024C222.619 42.5599 223.31 42.3281 224.016 42.3487ZM224.016 46.8884C224.217 46.8927 224.417 46.8559 224.603 46.7803C224.789 46.7046 224.957 46.5917 225.098 46.4485C225.243 46.3041 225.357 46.1314 225.433 45.9412C225.508 45.7509 225.544 45.5472 225.538 45.3426C225.54 45.1384 225.501 44.9358 225.423 44.7469C225.346 44.558 225.231 44.3866 225.086 44.2428C224.947 44.1002 224.781 43.9877 224.597 43.912C224.413 43.8363 224.215 43.7992 224.016 43.8029C223.816 43.7999 223.618 43.8379 223.433 43.9146C223.248 43.9913 223.08 44.1051 222.941 44.2489C222.663 44.5475 222.508 44.9405 222.508 45.3487C222.508 45.7569 222.663 46.1499 222.941 46.4485C223.081 46.5912 223.248 46.7039 223.433 46.7795C223.618 46.8552 223.817 46.8922 224.016 46.8884Z" fill="white"/>
<path d="M236.048 49.4242H234.587V48.2694H227.866V42.4526H229.339V46.8397H230.891V42.4526H232.369V46.8397H233.909V42.4526H235.394V46.8397H236.005L236.048 49.4242Z" fill="white"/>
<path d="M241.9 48.2694H240.397L240.061 47.2123H238.228L237.874 48.2694H236.358L238.479 42.4771H239.841L241.9 48.2694ZM238.582 45.9415H239.707L239.157 44.2245L238.582 45.9415Z" fill="white"/>
<path d="M244.693 42.4527H246.862V48.2694H245.402V46.4364C245.177 46.473 244.951 46.4934 244.723 46.4975L243.721 48.2694H242.09L243.355 46.247C243.021 46.0904 242.745 45.8338 242.565 45.5129C242.384 45.1921 242.308 44.8229 242.346 44.4568C242.339 44.1857 242.389 43.9162 242.495 43.6664C242.6 43.4165 242.758 43.1923 242.957 43.0087C243.444 42.6099 244.065 42.4112 244.693 42.4527ZM244.79 45.2144C245.012 45.2126 245.233 45.1921 245.45 45.1533V43.7724H244.784C244.173 43.7724 243.886 44.0107 243.886 44.4934C243.886 44.9761 244.179 45.2144 244.79 45.2144Z" fill="white"/>
<path d="M255.105 48.2694H253.345L252.062 46.1859L251.451 46.9435V48.2694H249.984V42.4526H251.451V44.8356L253.284 42.4526H255.056L253.046 45.0189L255.105 48.2694Z" fill="white"/>
<path d="M257.945 48.3366C257.546 48.3449 257.15 48.2729 256.779 48.1249C256.409 47.9769 256.072 47.7559 255.788 47.4751C255.229 46.904 254.915 46.1362 254.915 45.3365C254.915 44.5369 255.229 43.7691 255.788 43.198C256.367 42.637 257.142 42.3232 257.948 42.3232C258.755 42.3232 259.529 42.637 260.108 43.198C260.675 43.7652 260.994 44.5344 260.994 45.3365C260.994 46.1386 260.675 46.9079 260.108 47.4751C259.826 47.759 259.488 47.982 259.116 48.1301C258.744 48.2783 258.345 48.3486 257.945 48.3366ZM257.945 46.8885C258.146 46.8928 258.345 46.8559 258.531 46.7803C258.717 46.7046 258.886 46.5917 259.027 46.4486C259.172 46.3041 259.286 46.1314 259.361 45.9412C259.437 45.751 259.473 45.5473 259.467 45.3426C259.467 44.9307 259.305 44.5352 259.014 44.2428C258.729 43.9596 258.344 43.8007 257.942 43.8007C257.54 43.8007 257.155 43.9596 256.87 44.2428C256.587 44.5394 256.43 44.9332 256.43 45.3426C256.43 45.7521 256.587 46.1459 256.87 46.4425C257.008 46.5855 257.175 46.6989 257.359 46.7755C257.542 46.8522 257.74 46.8907 257.939 46.8885H257.945Z" fill="white"/>
<path d="M263.255 48.2694H261.819V42.4526H262.901L264.984 45.4343L267.062 42.4526H268.155V48.2694H266.701V45.4649L265.253 47.4934H264.703L263.255 45.4649V48.2694Z" fill="white"/>
<path d="M270.764 48.2694H269.298V42.4526H274.265V48.2694H272.793V43.8579H270.764V48.2694Z" fill="white"/>
<path d="M280.4 48.2694H278.891L278.555 47.2123H276.722L276.368 48.2694H274.858L276.972 42.4771H278.335L280.4 48.2694ZM277.082 45.9415H278.201L277.657 44.2245L277.082 45.9415Z" fill="white"/>
<path d="M282.464 48.2694H280.998V42.4526H282.464V44.6645H284.505V42.4526H285.978V48.2694H284.505V46.0637H282.471L282.464 48.2694Z" fill="white"/>
<path d="M288.049 48.2694H287.114V42.4526H288.55V45.8254L291.226 42.4526H292.173V48.2694H290.738V44.9089L288.049 48.2694Z" fill="white"/>
<path d="M295.504 42.4526H297.673V48.2694H296.231V46.4364C296.007 46.473 295.78 46.4934 295.553 46.4975L294.508 48.2694H292.877L294.142 46.247C293.815 46.0899 293.544 45.8363 293.366 45.5206C293.188 45.2048 293.111 44.842 293.146 44.4812C293.138 44.2101 293.189 43.9406 293.294 43.6908C293.399 43.4409 293.557 43.2167 293.757 43.0331C294.243 42.6226 294.869 42.4148 295.504 42.4526ZM295.578 45.2266C295.797 45.2245 296.016 45.2041 296.231 45.1655V43.7724H295.565C294.954 43.7724 294.667 44.0107 294.667 44.4934C294.667 44.9761 294.942 45.2144 295.553 45.2144L295.578 45.2266Z" fill="white"/>
<path opacity="0.5" d="M233.811 26.0929H234.692L236.989 32H236.007L235.383 30.3943H233.103L232.488 32H231.498L233.811 26.0929ZM235.2 29.7037L234.251 27.1162L233.27 29.7037H235.2ZM238.06 32V27.6487H240.39C240.667 27.6487 240.895 27.7014 241.072 27.8068C241.255 27.9066 241.391 28.037 241.48 28.1978C241.569 28.3531 241.613 28.5251 241.613 28.7137C241.613 28.9522 241.557 29.1629 241.447 29.346C241.336 29.529 241.172 29.6677 240.956 29.762C241.205 29.8341 241.408 29.9616 241.563 30.1447C241.724 30.3222 241.804 30.5523 241.804 30.8352C241.804 31.0904 241.743 31.3067 241.621 31.4842C241.499 31.6561 241.324 31.7865 241.097 31.8752C240.875 31.9584 240.615 32 240.315 32H238.06ZM238.926 31.3677H240.29C240.407 31.3677 240.512 31.34 240.606 31.2845C240.706 31.2235 240.784 31.1458 240.839 31.0515C240.895 30.9517 240.922 30.8463 240.922 30.7354C240.922 30.6134 240.895 30.5052 240.839 30.4109C240.789 30.3166 240.717 30.2417 240.623 30.1863C240.534 30.1308 240.429 30.1031 240.307 30.1031H238.926V31.3677ZM238.926 29.5124H240.157C240.273 29.5124 240.376 29.4846 240.465 29.4292C240.554 29.3682 240.623 29.2877 240.673 29.1879C240.723 29.0881 240.748 28.9827 240.748 28.8717C240.748 28.7109 240.695 28.5722 240.59 28.4557C240.484 28.3393 240.346 28.281 240.174 28.281H238.926V29.5124ZM244.165 32V28.4557H242.725V27.6487H246.527V28.4557H245.08V32H244.165ZM249.624 32.0832C249.28 32.0832 248.973 32.025 248.701 31.9085C248.429 31.7865 248.193 31.6201 247.994 31.4093C247.799 31.1985 247.65 30.96 247.544 30.6938C247.439 30.422 247.386 30.1336 247.386 29.8285C247.386 29.5235 247.439 29.235 247.544 28.9633C247.65 28.6915 247.799 28.453 247.994 28.2477C248.193 28.037 248.429 27.8734 248.701 27.7569C248.978 27.6349 249.286 27.5738 249.624 27.5738C249.963 27.5738 250.268 27.6349 250.539 27.7569C250.817 27.8734 251.053 28.037 251.247 28.2477C251.446 28.453 251.599 28.6915 251.704 28.9633C251.81 29.235 251.862 29.5235 251.862 29.8285C251.862 30.1336 251.81 30.422 251.704 30.6938C251.599 30.96 251.446 31.1985 251.247 31.4093C251.053 31.6201 250.817 31.7865 250.539 31.9085C250.268 32.025 249.963 32.0832 249.624 32.0832ZM248.326 29.8368C248.326 30.1142 248.385 30.3638 248.501 30.5856C248.618 30.8075 248.773 30.9822 248.967 31.1098C249.161 31.2373 249.38 31.3011 249.624 31.3011C249.863 31.3011 250.079 31.2373 250.273 31.1098C250.473 30.9767 250.631 30.7992 250.747 30.5773C250.864 30.3499 250.922 30.1003 250.922 29.8285C250.922 29.5512 250.864 29.3016 250.747 29.0797C250.631 28.8579 250.473 28.6832 250.273 28.5556C250.079 28.4225 249.863 28.3559 249.624 28.3559C249.38 28.3559 249.161 28.4225 248.967 28.5556C248.773 28.6887 248.618 28.8662 248.501 29.0881C248.385 29.3044 248.326 29.554 248.326 29.8368ZM253.132 32V27.6487H254.08L255.578 30.336L257.084 27.6487H258.015V32H257.142V28.9383L255.861 31.2263H255.286L253.997 28.9383V32H253.132ZM259.253 30.7271C259.253 30.4497 259.331 30.2085 259.486 30.0032C259.647 29.7925 259.866 29.6316 260.143 29.5207C260.42 29.4042 260.742 29.346 261.108 29.346C261.302 29.346 261.499 29.3598 261.699 29.3876C261.904 29.4153 262.084 29.4597 262.24 29.5207V29.2461C262.24 28.9411 262.148 28.7026 261.965 28.5306C261.782 28.3587 261.519 28.2727 261.175 28.2727C260.931 28.2727 260.701 28.3171 260.484 28.4058C260.268 28.489 260.038 28.6083 259.794 28.7636L259.486 28.1479C259.774 27.9538 260.063 27.8096 260.351 27.7153C260.645 27.621 260.953 27.5738 261.275 27.5738C261.857 27.5738 262.315 27.7291 262.647 28.0398C262.986 28.3448 263.155 28.7802 263.155 29.346V30.9683C263.155 31.0737 263.172 31.1486 263.205 31.193C263.244 31.2373 263.307 31.2623 263.396 31.2679V32C263.313 32.0166 263.238 32.0277 263.172 32.0333C263.105 32.0388 263.05 32.0416 263.005 32.0416C262.811 32.0416 262.664 31.9945 262.564 31.9002C262.464 31.8059 262.406 31.6949 262.39 31.5674L262.365 31.3178C262.176 31.5618 261.935 31.7504 261.641 31.8835C261.347 32.0166 261.05 32.0832 260.751 32.0832C260.462 32.0832 260.204 32.025 259.977 31.9085C259.749 31.7865 259.572 31.6228 259.444 31.4176C259.317 31.2124 259.253 30.9822 259.253 30.7271ZM262.023 30.9933C262.09 30.9212 262.143 30.8491 262.182 30.777C262.22 30.7049 262.24 30.6411 262.24 30.5856V30.0864C262.084 30.0254 261.921 29.981 261.749 29.9533C261.577 29.92 261.408 29.9034 261.241 29.9034C260.909 29.9034 260.637 29.97 260.426 30.1031C260.221 30.2362 260.118 30.4192 260.118 30.6522C260.118 30.7798 260.151 30.9018 260.218 31.0183C260.29 31.1347 260.39 31.229 260.518 31.3011C260.651 31.3732 260.814 31.4093 261.008 31.4093C261.208 31.4093 261.399 31.3705 261.583 31.2928C261.766 31.2152 261.913 31.1153 262.023 30.9933ZM265.706 32V28.4557H264.266V27.6487H268.069V28.4557H266.621V32H265.706ZM269.21 32V27.657H270.126V30.777L272.33 27.6487H273.162V32H272.247V28.9466L270.067 32H269.21ZM276.169 32.0666C275.726 32.0666 275.351 31.9861 275.046 31.8253C274.747 31.6589 274.517 31.4315 274.356 31.1431L275.096 30.8103C275.191 30.9711 275.324 31.0987 275.496 31.193C275.668 31.2817 275.876 31.3261 276.12 31.3261C276.414 31.3261 276.641 31.2651 276.802 31.1431C276.963 31.021 277.043 30.8602 277.043 30.6605C277.043 30.4775 276.977 30.3305 276.843 30.2196C276.71 30.1031 276.522 30.0421 276.278 30.0365H275.828V29.4541H276.294C276.405 29.4541 276.502 29.4292 276.585 29.3792C276.669 29.3293 276.732 29.2628 276.777 29.1796C276.827 29.0908 276.852 28.991 276.852 28.8801C276.852 28.7137 276.788 28.5805 276.66 28.4807C276.538 28.3753 276.353 28.3226 276.103 28.3226C275.887 28.3226 275.709 28.3642 275.57 28.4474C275.432 28.5251 275.318 28.6416 275.229 28.7969L274.539 28.4308C274.683 28.1645 274.894 27.9566 275.171 27.8068C275.448 27.657 275.773 27.5822 276.145 27.5822C276.438 27.5822 276.699 27.6293 276.927 27.7236C277.16 27.8123 277.34 27.9455 277.467 28.1229C277.6 28.2949 277.667 28.5084 277.667 28.7636C277.667 28.9633 277.62 29.1518 277.526 29.3293C277.431 29.5013 277.284 29.6288 277.085 29.712C277.351 29.7897 277.551 29.9256 277.684 30.1197C277.822 30.3083 277.892 30.5329 277.892 30.7936C277.892 31.0599 277.817 31.29 277.667 31.4842C277.523 31.6728 277.32 31.817 277.06 31.9168C276.799 32.0166 276.502 32.0666 276.169 32.0666ZM278.877 30.7271C278.877 30.4497 278.954 30.2085 279.11 30.0032C279.271 29.7925 279.49 29.6316 279.767 29.5207C280.044 29.4042 280.366 29.346 280.732 29.346C280.926 29.346 281.123 29.3598 281.323 29.3876C281.528 29.4153 281.708 29.4597 281.864 29.5207V29.2461C281.864 28.9411 281.772 28.7026 281.589 28.5306C281.406 28.3587 281.143 28.2727 280.799 28.2727C280.555 28.2727 280.324 28.3171 280.108 28.4058C279.892 28.489 279.662 28.6083 279.418 28.7636L279.11 28.1479C279.398 27.9538 279.687 27.8096 279.975 27.7153C280.269 27.621 280.577 27.5738 280.898 27.5738C281.481 27.5738 281.938 27.7291 282.271 28.0398C282.61 28.3448 282.779 28.7802 282.779 29.346V30.9683C282.779 31.0737 282.795 31.1486 282.829 31.193C282.867 31.2373 282.931 31.2623 283.02 31.2679V32C282.937 32.0166 282.862 32.0277 282.795 32.0333C282.729 32.0388 282.673 32.0416 282.629 32.0416C282.435 32.0416 282.288 31.9945 282.188 31.9002C282.088 31.8059 282.03 31.6949 282.013 31.5674L281.988 31.3178C281.8 31.5618 281.559 31.7504 281.265 31.8835C280.971 32.0166 280.674 32.0832 280.374 32.0832C280.086 32.0832 279.828 32.025 279.601 31.9085C279.373 31.7865 279.196 31.6228 279.068 31.4176C278.941 31.2124 278.877 30.9822 278.877 30.7271ZM281.647 30.9933C281.714 30.9212 281.767 30.8491 281.805 30.777C281.844 30.7049 281.864 30.6411 281.864 30.5856V30.0864C281.708 30.0254 281.545 29.981 281.373 29.9533C281.201 29.92 281.032 29.9034 280.865 29.9034C280.532 29.9034 280.261 29.97 280.05 30.1031C279.845 30.2362 279.742 30.4192 279.742 30.6522C279.742 30.7798 279.775 30.9018 279.842 31.0183C279.914 31.1347 280.014 31.229 280.141 31.3011C280.274 31.3732 280.438 31.4093 280.632 31.4093C280.832 31.4093 281.023 31.3705 281.206 31.2928C281.389 31.2152 281.536 31.1153 281.647 30.9933ZM287.758 33.04V32H284.347V27.6487H285.262V31.2013H287.042V27.6487H287.957V31.2013H288.565V33.04H287.758ZM289.793 32V27.657H290.708V30.777L292.913 27.6487H293.745V32H292.83V28.9466L290.65 32H289.793ZM295.021 32L296.186 30.2778C295.914 30.2112 295.698 30.0726 295.537 29.8618C295.376 29.651 295.296 29.3682 295.296 29.0132C295.296 28.7414 295.357 28.5029 295.479 28.2977C295.607 28.0924 295.784 27.9316 296.012 27.8151C296.239 27.6986 296.502 27.6404 296.802 27.6404H298.715V32H297.8V30.4275H297.085L296.02 32H295.021ZM296.893 29.762H297.8V28.3476H296.952C296.719 28.3476 296.533 28.4114 296.394 28.5389C296.261 28.6665 296.195 28.8329 296.195 29.0381C296.195 29.2434 296.253 29.4153 296.369 29.554C296.491 29.6926 296.666 29.762 296.893 29.762Z" fill="white"/>
<path opacity="0.5" d="M217.507 89.921V89.1389H217.931C218.07 89.1389 218.175 89.1056 218.248 89.0391C218.32 88.9725 218.389 88.8727 218.456 88.7396L218.63 88.3568L216.226 83.9806H217.258L219.055 87.4001L220.577 83.9806H221.567L219.171 89.1805C219.038 89.4523 218.891 89.6436 218.73 89.7546C218.575 89.8655 218.361 89.921 218.09 89.921H217.507ZM222.49 89.8877V85.5364H223.438L224.936 88.2237L226.442 85.5364H227.373V89.8877H226.5V86.826L225.219 89.1139H224.645L223.355 86.826V89.8877H222.49ZM228.927 89.8877V85.5364H229.842V87.2669H231.864V85.5364H232.779V89.8877H231.864V88.0573H229.842V89.8877H228.927ZM234.341 89.8877V85.5364H235.256V86.9674H236.08C236.596 86.9674 236.989 87.0978 237.261 87.3585C237.533 87.6191 237.669 87.963 237.669 88.3901C237.669 88.6785 237.611 88.9365 237.494 89.1639C237.378 89.3913 237.206 89.5688 236.978 89.6963C236.757 89.8239 236.479 89.8877 236.146 89.8877H234.341ZM235.256 89.1805H236.005C236.188 89.1805 236.335 89.1472 236.446 89.0807C236.557 89.0086 236.637 88.9143 236.687 88.7978C236.743 88.6758 236.77 88.5454 236.77 88.4068C236.77 88.2681 236.745 88.1433 236.695 88.0324C236.646 87.9159 236.562 87.8244 236.446 87.7578C236.335 87.6857 236.185 87.6497 235.997 87.6497H235.256V89.1805ZM238.384 89.8877V85.5447H239.3V89.8877H238.384ZM242.832 89.9709C242.493 89.9709 242.185 89.9127 241.908 89.7962C241.636 89.6742 241.4 89.5105 241.201 89.3053C241.001 89.0945 240.846 88.856 240.735 88.5898C240.63 88.318 240.577 88.0296 240.577 87.7245C240.577 87.3141 240.671 86.9397 240.86 86.6014C241.048 86.2575 241.312 85.9829 241.65 85.7777C241.988 85.5669 242.385 85.4615 242.84 85.4615C243.295 85.4615 243.686 85.5669 244.013 85.7777C244.346 85.9829 244.604 86.2547 244.787 86.593C244.97 86.9314 245.061 87.2947 245.061 87.6829C245.061 87.7495 245.058 87.8133 245.053 87.8743C245.047 87.9298 245.042 87.9769 245.036 88.0157H241.55C241.567 88.2709 241.636 88.4955 241.758 88.6896C241.886 88.8782 242.047 89.028 242.241 89.1389C242.435 89.2443 242.643 89.297 242.865 89.297C243.109 89.297 243.339 89.236 243.555 89.1139C243.777 88.9919 243.927 88.8311 244.005 88.6314L244.787 88.856C244.692 89.0668 244.548 89.2582 244.354 89.4301C244.165 89.5965 243.941 89.7296 243.68 89.8295C243.419 89.9237 243.137 89.9709 242.832 89.9709ZM241.525 87.4084H244.154C244.138 87.1588 244.066 86.9397 243.938 86.7511C243.816 86.557 243.658 86.4072 243.464 86.3018C243.275 86.1909 243.064 86.1354 242.832 86.1354C242.604 86.1354 242.393 86.1909 242.199 86.3018C242.011 86.4072 241.855 86.557 241.733 86.7511C241.611 86.9397 241.542 87.1588 241.525 87.4084ZM251.25 89.9709C250.9 89.9709 250.592 89.8877 250.326 89.7213C250.06 89.5549 249.849 89.3386 249.694 89.0723V91.6598H248.779V85.5364H249.586V86.3185C249.752 86.0578 249.968 85.8498 250.234 85.6945C250.501 85.5392 250.797 85.4615 251.125 85.4615C251.424 85.4615 251.699 85.5225 251.948 85.6446C252.198 85.761 252.414 85.9247 252.597 86.1354C252.78 86.3462 252.922 86.5875 253.022 86.8593C253.127 87.1255 253.18 87.4084 253.18 87.7079C253.18 88.1239 253.097 88.5038 252.93 88.8477C252.769 89.1916 252.542 89.4662 252.248 89.6714C251.959 89.8711 251.627 89.9709 251.25 89.9709ZM250.95 89.1888C251.144 89.1888 251.319 89.1472 251.474 89.064C251.635 88.9808 251.771 88.8699 251.882 88.7312C251.998 88.5926 252.087 88.4345 252.148 88.257C252.209 88.0795 252.24 87.8965 252.24 87.7079C252.24 87.5082 252.206 87.3196 252.14 87.1421C252.073 86.9647 251.976 86.8094 251.849 86.6762C251.727 86.5431 251.582 86.4377 251.416 86.3601C251.255 86.2824 251.078 86.2436 250.883 86.2436C250.767 86.2436 250.645 86.2658 250.517 86.3102C250.39 86.3545 250.271 86.4155 250.16 86.4932C250.049 86.5708 249.952 86.6624 249.868 86.7678C249.785 86.8731 249.727 86.9841 249.694 87.1005V88.2404C249.771 88.4179 249.874 88.5787 250.002 88.7229C250.129 88.8616 250.276 88.9753 250.442 89.064C250.609 89.1472 250.778 89.1888 250.95 89.1888ZM254.144 88.6148C254.144 88.3374 254.222 88.0962 254.377 87.8909C254.538 87.6802 254.757 87.5193 255.034 87.4084C255.312 87.2919 255.633 87.2337 256 87.2337C256.194 87.2337 256.391 87.2475 256.59 87.2753C256.795 87.303 256.976 87.3474 257.131 87.4084V87.1338C257.131 86.8288 257.04 86.5903 256.857 86.4183C256.673 86.2464 256.41 86.1604 256.066 86.1604C255.822 86.1604 255.592 86.2048 255.376 86.2935C255.159 86.3767 254.929 86.496 254.685 86.6513L254.377 86.0356C254.666 85.8415 254.954 85.6973 255.242 85.603C255.536 85.5087 255.844 85.4615 256.166 85.4615C256.748 85.4615 257.206 85.6168 257.539 85.9274C257.877 86.2325 258.046 86.6679 258.046 87.2337V88.856C258.046 88.9614 258.063 89.0363 258.096 89.0807C258.135 89.125 258.199 89.15 258.288 89.1555V89.8877C258.204 89.9043 258.129 89.9154 258.063 89.921C257.996 89.9265 257.941 89.9293 257.896 89.9293C257.702 89.9293 257.555 89.8821 257.456 89.7879C257.356 89.6936 257.297 89.5826 257.281 89.4551L257.256 89.2055C257.067 89.4495 256.826 89.6381 256.532 89.7712C256.238 89.9043 255.941 89.9709 255.642 89.9709C255.353 89.9709 255.095 89.9127 254.868 89.7962C254.641 89.6742 254.463 89.5105 254.336 89.3053C254.208 89.1001 254.144 88.8699 254.144 88.6148ZM256.915 88.881C256.981 88.8089 257.034 88.7368 257.073 88.6647C257.112 88.5926 257.131 88.5288 257.131 88.4733V87.9741C256.976 87.9131 256.812 87.8687 256.64 87.841C256.468 87.8077 256.299 87.7911 256.133 87.7911C255.8 87.7911 255.528 87.8577 255.317 87.9908C255.112 88.1239 255.009 88.3069 255.009 88.5399C255.009 88.6675 255.043 88.7895 255.109 88.906C255.181 89.0224 255.281 89.1167 255.409 89.1888C255.542 89.2609 255.706 89.297 255.9 89.297C256.099 89.297 256.291 89.2582 256.474 89.1805C256.657 89.1029 256.804 89.003 256.915 88.881ZM261.07 89.9543C260.626 89.9543 260.252 89.8738 259.947 89.713C259.647 89.5466 259.417 89.3192 259.256 89.0308L259.997 88.698C260.091 88.8588 260.224 88.9864 260.396 89.0807C260.568 89.1694 260.776 89.2138 261.02 89.2138C261.314 89.2138 261.542 89.1528 261.702 89.0308C261.863 88.9087 261.944 88.7479 261.944 88.5482C261.944 88.3652 261.877 88.2182 261.744 88.1072C261.611 87.9908 261.422 87.9298 261.178 87.9242H260.729V87.3418H261.195C261.306 87.3418 261.403 87.3169 261.486 87.2669C261.569 87.217 261.633 87.1505 261.677 87.0673C261.727 86.9785 261.752 86.8787 261.752 86.7678C261.752 86.6014 261.689 86.4682 261.561 86.3684C261.439 86.263 261.253 86.2103 261.004 86.2103C260.787 86.2103 260.61 86.2519 260.471 86.3351C260.332 86.4128 260.219 86.5292 260.13 86.6846L259.439 86.3185C259.584 86.0522 259.794 85.8442 260.072 85.6945C260.349 85.5447 260.674 85.4699 261.045 85.4699C261.339 85.4699 261.6 85.517 261.827 85.6113C262.06 85.7 262.24 85.8332 262.368 86.0106C262.501 86.1826 262.568 86.3961 262.568 86.6513C262.568 86.8509 262.521 87.0395 262.426 87.217C262.332 87.389 262.185 87.5165 261.985 87.5997C262.252 87.6774 262.451 87.8133 262.584 88.0074C262.723 88.196 262.792 88.4206 262.792 88.6813C262.792 88.9476 262.717 89.1777 262.568 89.3719C262.423 89.5604 262.221 89.7047 261.96 89.8045C261.7 89.9043 261.403 89.9543 261.07 89.9543ZM266.565 89.9709C266.215 89.9709 265.907 89.8877 265.641 89.7213C265.375 89.5549 265.164 89.3386 265.009 89.0723V91.6598H264.094V85.5364H264.901V86.3185C265.067 86.0578 265.283 85.8498 265.55 85.6945C265.816 85.5392 266.112 85.4615 266.44 85.4615C266.739 85.4615 267.014 85.5225 267.263 85.6446C267.513 85.761 267.729 85.9247 267.912 86.1354C268.095 86.3462 268.237 86.5875 268.337 86.8593C268.442 87.1255 268.495 87.4084 268.495 87.7079C268.495 88.1239 268.412 88.5038 268.245 88.8477C268.084 89.1916 267.857 89.4662 267.563 89.6714C267.274 89.8711 266.942 89.9709 266.565 89.9709ZM266.265 89.1888C266.459 89.1888 266.634 89.1472 266.789 89.064C266.95 88.9808 267.086 88.8699 267.197 88.7312C267.313 88.5926 267.402 88.4345 267.463 88.257C267.524 88.0795 267.555 87.8965 267.555 87.7079C267.555 87.5082 267.521 87.3196 267.455 87.1421C267.388 86.9647 267.291 86.8094 267.164 86.6762C267.042 86.5431 266.897 86.4377 266.731 86.3601C266.57 86.2824 266.393 86.2436 266.198 86.2436C266.082 86.2436 265.96 86.2658 265.832 86.3102C265.705 86.3545 265.586 86.4155 265.475 86.4932C265.364 86.5708 265.267 86.6624 265.183 86.7678C265.1 86.8731 265.042 86.9841 265.009 87.1005V88.2404C265.086 88.4179 265.189 88.5787 265.317 88.7229C265.444 88.8616 265.591 88.9753 265.758 89.064C265.924 89.1472 266.093 89.1888 266.265 89.1888ZM269.459 88.6148C269.459 88.3374 269.537 88.0962 269.692 87.8909C269.853 87.6802 270.072 87.5193 270.349 87.4084C270.627 87.2919 270.949 87.2337 271.315 87.2337C271.509 87.2337 271.706 87.2475 271.905 87.2753C272.111 87.303 272.291 87.3474 272.446 87.4084V87.1338C272.446 86.8288 272.355 86.5903 272.172 86.4183C271.988 86.2464 271.725 86.1604 271.381 86.1604C271.137 86.1604 270.907 86.2048 270.691 86.2935C270.474 86.3767 270.244 86.496 270 86.6513L269.692 86.0356C269.981 85.8415 270.269 85.6973 270.557 85.603C270.851 85.5087 271.159 85.4615 271.481 85.4615C272.063 85.4615 272.521 85.6168 272.854 85.9274C273.192 86.2325 273.361 86.6679 273.361 87.2337V88.856C273.361 88.9614 273.378 89.0363 273.411 89.0807C273.45 89.125 273.514 89.15 273.603 89.1555V89.8877C273.519 89.9043 273.444 89.9154 273.378 89.921C273.311 89.9265 273.256 89.9293 273.212 89.9293C273.017 89.9293 272.87 89.8821 272.771 89.7879C272.671 89.6936 272.612 89.5826 272.596 89.4551L272.571 89.2055C272.382 89.4495 272.141 89.6381 271.847 89.7712C271.553 89.9043 271.256 89.9709 270.957 89.9709C270.668 89.9709 270.41 89.9127 270.183 89.7962C269.956 89.6742 269.778 89.5105 269.651 89.3053C269.523 89.1001 269.459 88.8699 269.459 88.6148ZM272.23 88.881C272.296 88.8089 272.349 88.7368 272.388 88.6647C272.427 88.5926 272.446 88.5288 272.446 88.4733V87.9741C272.291 87.9131 272.127 87.8687 271.955 87.841C271.783 87.8077 271.614 87.7911 271.448 87.7911C271.115 87.7911 270.843 87.8577 270.632 87.9908C270.427 88.1239 270.325 88.3069 270.325 88.5399C270.325 88.6675 270.358 88.7895 270.424 88.906C270.496 89.0224 270.596 89.1167 270.724 89.1888C270.857 89.2609 271.021 89.297 271.215 89.297C271.414 89.297 271.606 89.2582 271.789 89.1805C271.972 89.1029 272.119 89.003 272.23 88.881ZM277.034 89.9709C276.307 89.9709 275.756 89.7518 275.378 89.3136C275.001 88.8754 274.813 88.2487 274.813 87.4333C274.813 86.9009 274.857 86.4516 274.946 86.0855C275.04 85.7139 275.176 85.4088 275.353 85.1703C275.537 84.9318 275.761 84.7377 276.027 84.588C276.299 84.4326 276.613 84.3078 276.968 84.2136L278.823 83.6977L278.856 84.4632L277.034 84.979C276.746 85.0677 276.499 85.1842 276.294 85.3284C276.094 85.4726 275.936 85.6612 275.819 85.8942C275.703 86.1216 275.625 86.41 275.586 86.7594C275.742 86.4766 275.964 86.2547 276.252 86.0938C276.54 85.933 276.882 85.8526 277.275 85.8526C277.68 85.8526 278.03 85.9385 278.324 86.1105C278.618 86.2769 278.845 86.5098 279.006 86.8094C279.167 87.1089 279.247 87.4528 279.247 87.841C279.247 88.2626 279.161 88.6342 278.989 88.9559C278.823 89.272 278.573 89.5216 278.24 89.7047C277.913 89.8821 277.511 89.9709 277.034 89.9709ZM277.034 89.1888C277.439 89.1888 277.752 89.0696 277.974 88.8311C278.202 88.5926 278.315 88.2764 278.315 87.8826C278.315 87.5054 278.202 87.1976 277.974 86.9591C277.752 86.7151 277.439 86.593 277.034 86.593C276.796 86.593 276.579 86.6457 276.385 86.7511C276.191 86.8509 276.038 86.9979 275.928 87.1921C275.817 87.3806 275.761 87.6108 275.761 87.8826C275.761 88.1378 275.811 88.3652 275.911 88.5648C276.011 88.759 276.155 88.9115 276.344 89.0224C276.532 89.1334 276.762 89.1888 277.034 89.1888ZM282.485 89.9709C282.141 89.9709 281.833 89.9127 281.561 89.7962C281.29 89.6742 281.054 89.5078 280.854 89.297C280.66 89.0862 280.51 88.8477 280.405 88.5815C280.3 88.3097 280.247 88.0213 280.247 87.7162C280.247 87.4112 280.3 87.1227 280.405 86.8509C280.51 86.5792 280.66 86.3407 280.854 86.1354C281.054 85.9247 281.29 85.761 281.561 85.6446C281.839 85.5225 282.147 85.4615 282.485 85.4615C282.823 85.4615 283.128 85.5225 283.4 85.6446C283.677 85.761 283.913 85.9247 284.107 86.1354C284.307 86.3407 284.46 86.5792 284.565 86.8509C284.67 87.1227 284.723 87.4112 284.723 87.7162C284.723 88.0213 284.67 88.3097 284.565 88.5815C284.46 88.8477 284.307 89.0862 284.107 89.297C283.913 89.5078 283.677 89.6742 283.4 89.7962C283.128 89.9127 282.823 89.9709 282.485 89.9709ZM281.187 87.7245C281.187 88.0019 281.245 88.2515 281.362 88.4733C281.478 88.6952 281.634 88.8699 281.828 88.9975C282.022 89.125 282.241 89.1888 282.485 89.1888C282.723 89.1888 282.94 89.125 283.134 88.9975C283.334 88.8644 283.492 88.6869 283.608 88.465C283.725 88.2376 283.783 87.988 283.783 87.7162C283.783 87.4389 283.725 87.1893 283.608 86.9674C283.492 86.7456 283.334 86.5708 283.134 86.4433C282.94 86.3102 282.723 86.2436 282.485 86.2436C282.241 86.2436 282.022 86.3102 281.828 86.4433C281.634 86.5764 281.478 86.7539 281.362 86.9757C281.245 87.1921 281.187 87.4417 281.187 87.7245ZM287.024 89.8877V86.3434H285.585V85.5364H289.387V86.3434H287.939V89.8877H287.024ZM290.529 89.8877V85.5364H291.435V87.2586H291.868L293.149 85.5364H294.164L292.575 87.6413L294.347 89.8877H293.291L291.86 88.0823H291.435V89.8877H290.529ZM295.504 89.8877V85.5447H296.419V88.6647L298.624 85.5364H299.455V89.8877H298.54V86.8343L296.361 89.8877H295.504Z" fill="white"/>
</g>
</g>
<defs>
<filter id="filter0_d_1808_544571" x="0" y="-60" width="395" height="256" filterUnits="userSpaceOnUse" color-interpolation-filters="sRGB">
<feFlood flood-opacity="0" result="BackgroundImageFix"/>
<feColorMatrix in="SourceAlpha" type="matrix" values="0 0 0 0 0 0 0 0 0 0 0 0 0 0 0 0 0 0 127 0" result="hardAlpha"/>
<feOffset/>
<feGaussianBlur stdDeviation="30"/>
<feComposite in2="hardAlpha" operator="out"/>
<feColorMatrix type="matrix" values="0 0 0 0 0 0 0 0 0 0 0 0 0 0 0 0 0 0 0.25 0"/>
<feBlend mode="normal" in2="BackgroundImageFix" result="effect1_dropShadow_1808_544571"/>
<feBlend mode="normal" in="SourceGraphic" in2="effect1_dropShadow_1808_544571" result="shape"/>
</filter>
<linearGradient id="paint0_linear_1808_544571" x1="60" y1="54" x2="335" y2="47.5" gradientUnits="userSpaceOnUse">
<stop stop-color="#282C30"/>
<stop offset="1" stop-color="#2B3034"/>
</linearGradient>
<clipPath id="clip0_1808_544571">
<rect width="233.82" height="103.92" fill="white" transform="translate(80.4297)"/>
</clipPath>
</defs>
</svg>
